<svg width="1448" height="1568" viewBox="0 0 1448 1568" fill="none" xmlns="http://www.w3.org/2000/svg">
<g clip-path="url(#clip0_1_2)" filter="url(#filter0_d_1_2)">
<mask id="mask0_1_2" style="mask-type:luminance" maskUnits="userSpaceOnUse" x="4" y="0" width="1440" height="1560">
<path d="M1444 0H4V1560H1444V0Z" fill="white"/>
</mask>
<g mask="url(#mask0_1_2)">
<path d="M1444 0H4V1560H1444V0Z" fill="#1E3266"/>
<path d="M1516 1560H4V1100.92C63.24 1080.16 103.24 1099.4 124 1158.63C132.867 1119.5 156.867 1104.37 196 1113.24C239.773 1077.01 279.773 1080.79 316 1124.56C351.06 1111.61 375.06 1122.67 388 1157.73C388.92 1078.65 428.92 1039.57 508 1040.49C521.013 1005.5 545.013 994.513 580 1007.52C611.513 991.033 635.513 998.547 652 1030.06C718.407 1048.46 742.407 1090.86 724 1157.27C714.767 1100.04 738.767 1066.81 796 1057.58C814.073 1027.65 838.073 1021.73 868 1039.8C927.007 1018.81 967.007 1037.81 988 1096.82C1044.34 1105.16 1068.34 1137.5 1060 1193.84C1057.73 1111.56 1097.73 1069.28 1180 1067.01C1183.04 1022.05 1207.04 1001.09 1252 1004.12C1297.12 969.24 1337.12 974.357 1372 1019.47C1424.14 1023.61 1448.14 1051.75 1444 1103.88C1485.02 1096.9 1509.02 1113.92 1516 1154.93V1560Z" fill="#182F5D"/>
<path d="M1540 1560H4V1182.53C67.9733 1198.5 91.9733 1238.48 76 1302.45C47.3333 1225.78 71.3333 1173.12 148 1144.46C235.187 1183.65 259.187 1246.83 220 1334.01C213.667 1279.68 237.667 1249.35 292 1243.02C298.42 1201.43 322.42 1183.85 364 1190.27C398.733 1145 438.733 1139.73 484 1174.46C503.093 1145.55 527.093 1140.65 556 1159.74C615.487 1139.23 655.487 1158.71 676 1218.19C716.647 1210.84 740.647 1227.48 748 1268.13C792.413 1264.54 816.413 1284.96 820 1329.37C829.727 1291.09 853.727 1276.81 892 1286.54C942.247 1256.78 982.247 1267.02 1012 1317.27C1031.97 1257.24 1071.97 1237.22 1132 1257.19C1129.29 1206.48 1153.29 1179.76 1204 1177.05C1273.24 1198.29 1297.24 1243.53 1276 1312.77C1247.09 1235.86 1271.09 1182.96 1348 1154.05C1395.85 1153.9 1419.85 1177.74 1420 1225.59C1444.98 1170.57 1484.98 1155.55 1540 1180.53V1560Z" fill="#25467D"/>
<path d="M1492 1560H4V1314.56C19.42 1281.97 43.42 1273.39 76 1288.81C160.02 1324.83 184.02 1384.85 148 1468.86C116.98 1389.84 140.98 1334.82 220 1303.8C296.1 1299.9 336.1 1336 340 1412.11C373.667 1397.78 397.667 1407.44 412 1441.1C443.433 1424.53 467.433 1431.97 484 1463.4C492.24 1423.64 516.24 1407.88 556 1416.11C580.773 1360.88 620.773 1345.66 676 1370.43C672.52 1318.95 696.52 1291.47 748 1287.99C807.747 1267.74 847.747 1287.48 868 1347.22C931.5 1330.72 971.5 1354.22 988 1417.73C1000.43 1382.16 1024.43 1370.59 1060 1383.02C1079.01 1354.03 1103.01 1349.04 1132 1368.05C1150.45 1338.5 1174.45 1332.96 1204 1351.41C1245.01 1344.42 1269.01 1361.44 1276 1402.46C1289.52 1367.98 1313.52 1357.5 1348 1371.02C1376.76 1351.78 1400.76 1356.54 1420 1385.31C1462.92 1380.23 1486.92 1399.15 1492 1442.07V1560Z" fill="#356CB1"/>
<path d="M1516 1560H4V1556.73C46.6133 1519.34 86.6133 1521.96 124 1564.57C128.22 1488.79 168.22 1453.01 244 1457.23C261.493 1426.72 285.493 1420.21 316 1437.7C377.827 1419.53 417.827 1441.35 436 1503.18C467.767 1454.95 507.767 1446.71 556 1478.48C592.24 1466.72 616.24 1478.96 628 1515.2C645.993 1453.19 685.993 1431.19 748 1449.18C764.833 1418.01 788.833 1410.84 820 1427.67C855.187 1414.86 879.187 1426.04 892 1461.22C938.787 1428.01 978.787 1434.8 1012 1481.59C1095.79 1485.38 1135.79 1529.16 1132 1612.95C1119.2 1520.15 1159.2 1467.35 1252 1454.55C1286.61 1409.16 1326.61 1403.77 1372 1438.38C1411.37 1429.75 1435.37 1445.11 1444 1484.48C1507.28 1499.76 1531.28 1539.04 1516 1602.33V1560Z" fill="white"/>
</g>
<circle cx="98" cy="64" r="5" fill="white"/>
<circle cx="261" cy="190" r="5" fill="white"/>
<circle cx="484" cy="108" r="5" fill="white"/>
<circle cx="435" cy="315" r="5" fill="white"/>
<circle cx="804" cy="254" r="5" fill="white"/>
<circle cx="950" cy="354" r="5" fill="white"/>
<circle cx="1094" cy="182" r="5" fill="white"/>
<circle cx="796" cy="80" r="5" fill="white"/>
<circle cx="655" cy="206" r="5" fill="white"/>
<circle cx="1246" cy="270" r="5" fill="white"/>
<circle cx="1230" cy="433" r="5" fill="white"/>
<circle cx="934" cy="174" r="5" fill="white"/>
<circle cx="934" cy="174" r="5" fill="white"/>
<circle cx="287" cy="370" r="5" fill="white"/>
<circle cx="695" cy="378" r="5" fill="white"/>
<circle cx="129" cy="557" r="5" fill="white"/>
<circle cx="292" cy="675" r="5" fill="white"/>
<circle cx="515" cy="593" r="5" fill="white"/>
<circle cx="466" cy="800" r="5" fill="white"/>
<circle cx="835" cy="739" r="5" fill="white"/>
<circle cx="981" cy="839" r="5" fill="white"/>
<circle cx="1125" cy="667" r="5" fill="white"/>
<circle cx="827" cy="565" r="5" fill="white"/>
<circle cx="686" cy="691" r="5" fill="white"/>
<circle cx="1277" cy="755" r="5" fill="white"/>
<circle cx="1261" cy="918" r="5" fill="white"/>
<circle cx="965" cy="659" r="5" fill="white"/>
<circle cx="965" cy="659" r="5" fill="white"/>
<circle cx="318" cy="855" r="5" fill="white"/>
<circle cx="726" cy="863" r="5" fill="white"/>
<circle cx="1383" cy="331" r="5" fill="white"/>
<circle cx="1353" cy="601" r="5" fill="white"/>
<circle cx="1324" cy="100" r="5" fill="white"/>
<circle cx="90" cy="988" r="5" fill="white"/>
<circle cx="427" cy="972" r="5" fill="white"/>
<circle cx="427" cy="972" r="5" fill="white"/>
<circle cx="1056" cy="1025" r="5" fill="white"/>
<circle cx="742" cy="1009" r="5" fill="white"/>
</g>
<defs>
<filter id="filter0_d_1_2" x="0" y="0" width="1448" height="1568" filterUnits="userSpaceOnUse" color-interpolation-filters="sRGB">
<feFlood flood-opacity="0" result="BackgroundImageFix"/>
<feColorMatrix in="SourceAlpha" type="matrix" values="0 0 0 0 0 0 0 0 0 0 0 0 0 0 0 0 0 0 127 0" result="hardAlpha"/>
<feOffset dy="4"/>
<feGaussianBlur stdDeviation="2"/>
<feComposite in2="hardAlpha" operator="out"/>
<feColorMatrix type="matrix" values="0 0 0 0 0 0 0 0 0 0 0 0 0 0 0 0 0 0 0.25 0"/>
<feBlend mode="normal" in2="BackgroundImageFix" result="effect1_dropShadow_1_2"/>
<feBlend mode="normal" in="SourceGraphic" in2="effect1_dropShadow_1_2" result="shape"/>
</filter>
<clipPath id="clip0_1_2">
<rect width="1440" height="1560" fill="white" transform="translate(4)"/>
</clipPath>
</defs>
</svg>
